<?xml version="1.0" encoding="utf-8"?>
<!-- Generator: Adobe Illustrator 27.0.1, SVG Export Plug-In . SVG Version: 6.00 Build 0)  -->
<svg version="1.1" id="Calque_2_00000006669299667113669530000015984044584359444899_"
	 xmlns="http://www.w3.org/2000/svg" xmlns:xlink="http://www.w3.org/1999/xlink" x="0px" y="0px" viewBox="0 0 32 32"
	 style="enable-background:new 0 0 32 32;" xml:space="preserve">
<style type="text/css">
	.st0{fill:#080808;}
	.st1{fill:#EEEEEE;}
</style>
<g id="Calque_1-2">
	<g>
		<path class="st0" d="M9.3,13.2c-0.1,0.5-0.3,0.9-0.5,1.3c-0.2,0.6-0.6,1.2-0.9,1.7c-0.6,1-1.4,1.9-2.4,2.7l-0.4,0.3l-2.8-3.7
			l0.4-0.3c0.8-0.6,1.5-1.5,2-2.7c0.1-0.3,0.3-0.8,0.4-1.3C5.2,11,5.6,9.3,4.7,7.4C4.5,7,4.2,6.6,3.9,6.3l-1.6-2l0.3-0.4l3.1-2.6
			l1.7,2.1c0.3,0.4,0.6,0.7,1,1c1.4,1.1,3,1.3,3.8,1.3l0.2,0c0.4,0,0.8,0,1.1-0.1c0.6-0.1,1.1-0.3,1.7-0.5c0.5-0.2,1-0.5,1.5-0.9
			l0.4-0.3l2.8,3.7l-1.1,0.8c-0.8,0.6-1.7,1-2.6,1.4c-1,0.4-1.6,0.5-1.9,0.5c-0.5,0.1-0.9,0.1-1.4,0.1c2.8,3.4,5.5,6.9,8.2,10.3
			l2.1,2.6l-3.7,2.9L9.3,13.2z"/>
		<path class="st1" d="M5.8,2c0.5,0.6,0.9,1.1,1.4,1.7c0.4,0.5,0.8,0.8,1.1,1c1.6,1.2,3.4,1.4,4.1,1.4c0.1,0,0.1,0,0.2,0
			c0.4,0,0.9,0,1.2-0.1c0.5-0.1,1.1-0.2,1.8-0.5c0.7-0.3,1.2-0.6,1.6-0.9l2.2,2.9c-0.2,0.2-0.4,0.3-0.6,0.5c-1,0.7-1.8,1.1-2.5,1.3
			c-0.8,0.3-1.4,0.4-1.8,0.5c-0.8,0.1-1.6,0.2-2.4,0.2c3.6,4.4,7.1,8.9,10.7,13.4l-2.9,2.3c-3.6-4.5-7.1-8.9-10.7-13.4
			c-0.1,0.8-0.3,1.6-0.6,2.3c-0.2,0.6-0.5,1.1-0.9,1.6c-0.6,0.9-1.4,1.8-2.3,2.6L3,15.7c1-0.8,1.7-1.8,2.2-2.9
			c0.2-0.4,0.3-0.9,0.4-1.4C5.8,10.8,6,9.1,5.1,7.2C4.9,6.8,4.7,6.4,4.3,5.9C3.9,5.4,3.4,4.8,3,4.3C3.9,3.5,4.8,2.8,5.8,2 M5.9,0.6
			L5.1,1.2L2.4,3.5L1.6,4.1l0.6,0.8l1.3,1.7C3.8,6.9,4,7.3,4.2,7.6C5,9.4,4.7,11,4.6,11.2c-0.1,0.3-0.2,0.8-0.4,1.2
			c-0.5,1-1.1,1.9-1.9,2.5l-0.8,0.6l0.6,0.8l2.2,2.9L5.1,20l0.8-0.7c1-0.9,1.8-1.8,2.5-2.8c0.3-0.4,0.7-1.1,1-1.8
			c0.1-0.1,0.1-0.3,0.2-0.5c1.4,1.7,2.7,3.4,4.1,5.1c1.8,2.2,3.5,4.5,5.3,6.7l0.6,0.8l0.8-0.6l2.9-2.3l0.8-0.6l-0.6-0.8l-1.8-2.3
			c-2.5-3.1-5.1-6.4-7.6-9.6c0.2,0,0.3,0,0.5-0.1c0.5-0.1,1.3-0.3,2-0.5c1-0.4,1.9-0.8,2.7-1.4l0.7-0.5l0.8-0.6L20,6.8l-2.2-2.9
			l-0.6-0.8l-0.8,0.6C16,4.1,15.5,4.3,15,4.6c-0.5,0.2-1,0.4-1.5,0.5c-0.4,0.1-0.7,0.1-1.1,0.1l-0.2,0c-0.7,0-2.2-0.2-3.5-1.2
			C8.5,3.7,8.2,3.4,7.9,3L6.5,1.4L5.9,0.6L5.9,0.6z"/>
	</g>
</g>
</svg>
