<?xml version="1.0" encoding="UTF-8"?><svg id="Calque_2" xmlns="http://www.w3.org/2000/svg" viewBox="0 0 75.39 113.62"><defs><style>.cls-1{fill:#fff;}</style></defs><g id="Calque_1-2"><path class="cls-1" d="M75.39,60.53v15.22c-5.32,.02-10.32,1.4-14.66,3.81-1.78,.99-3.44,2.15-4.97,3.46-4.62,3.95-8.01,9.26-9.56,15.3-.34,1.35-.6,2.73-.75,4.14,0,.02,0,.04,0,.06,0,0,0,.07-.01,.13,0,.07,0,2.63,0,6.13v4.84h-15.13v-9.46c0-.18-.02-.42-.04-.7,0-.07-.05-.58-.11-1.15-.15-1.36-.4-2.69-.73-3.99-.04-.15-.08-.31-.12-.46-1.6-5.85-4.94-11-9.44-14.84-1.51-1.29-3.14-2.43-4.89-3.41-.04-.02-.07-.04-.11-.06-4.36-2.42-9.39-3.8-14.74-3.8h-.11v-15.22c.82,0,1.95,0,3.3,.09,5.26,.34,9.37,1.54,11.66,2.32,2.5,.85,4.9,1.92,7.18,3.18,2.92,1.61,5.64,3.53,8.12,5.72,.01,.01,.03,.03,.04,.04-.05-23.96-.1-47.92-.15-71.88h15.31c0,24.05-.01,48.11-.02,72.16,0,0,.01-.01,.02-.02,2.49-2.24,5.23-4.21,8.17-5.86,2.26-1.27,4.64-2.34,7.11-3.21,4.59-1.61,9.52-2.5,14.66-2.54Z"/></g></svg>