<?xml version="1.0" encoding="UTF-8"?><svg id="Calque_7" xmlns="http://www.w3.org/2000/svg" viewBox="0 0 488.48 488.48"><defs><style>.cls-1{fill:#bfa65a;}</style></defs><path class="cls-1" d="M391.6,440.15v-98.13c0-3.53,.15-7.9-4.73-8.15-4.27-.22-8.62,0-12.91,0h-30.14c-2.11,0-4.16,.05-5.54,2.01-1.44,2.04-1.82,5.21-2.65,7.57-.93,2.59-1.96,5.14-3.12,7.63-2.33,5.01-5.1,9.81-8.27,14.34-12.6,18-31.61,31.16-52.9,36.59-25.13,6.42-52.36,1.84-74.01-12.46-20.67-13.65-35.22-35.46-39.92-59.77-4.81-24.9,1.03-51.12,15.83-71.68,3.4-4.74,7.29-9.14,11.53-13.15,2.13-2.01,4.35-3.94,6.66-5.74,1.17-.92,2.37-1.8,3.58-2.65,.94-.66,2.39-2.14,3.6-2.02,1.74,.16,1.42,2.22,1.42,3.42v66.5c0,3.79-.6,8.65,4.33,9.34h.01c.13,.02,.25,.03,.39,.04,.09,.01,.19,.01,.27,0h35.27c4.03,0,10.33,.99,10.59-4.83,.13-3.02,0-6.08,0-9.1v-77.21c0-1.79,.08-2.98,2.51-2.92,7.25,.17,14.64,1.67,21.56,3.74,10.61,3.17,20.61,8.28,29.43,14.97,17.8,13.5,30.31,33.42,34.76,55.31,.57,2.8,1.01,5.62,1.32,8.47,.16,1.53,.28,3.06,.37,4.59,.08,1.5-.06,3.11,.66,4.47,1.24,2.33,3.52,2.51,5.81,2.51h38.15c2.45,0,4.98-.49,5.88-3.2,.26-.79,.24-1.54,.25-2.34,.05-6.95,0-13.9,0-20.84V132.78c0-14.75-2.48-29.08-8.62-42.58-9.66-21.23-27.24-38.57-48.59-47.93-24.85-10.9-53.71-10.7-78.4,.57-21.15,9.64-38.46,27.18-47.81,48.47-4.7,10.69-7.41,22.16-8,33.83-.25,4.91-.13,9.84-.13,14.76v32.17c0,1.45,.18,3.03,0,4.49-.23,1.98-3.92,2.65-5.54,3.34-2.46,1.02-4.91,2.11-7.32,3.26-4.98,2.4-9.82,5.1-14.49,8.07-9.3,5.91-17.92,12.91-25.63,20.79-15.45,15.83-27.14,35.21-33.86,56.29-7.56,23.68-8.71,49.31-3.46,73.6,4.79,22.24,15.06,43.15,29.56,60.66,14.32,17.3,32.78,31.16,53.42,40.01,24.95,10.71,52.72,14.06,79.52,9.7,12.74-2.07,25.15-5.92,36.85-11.35,5.89-2.73,11.58-5.86,17.04-9.38,2.62-1.68,5.18-3.46,7.69-5.32,1.28-.96,6.03-5.85,6.89-2.44,.44,1.78,.04,4.09,.04,5.91v11.33c0,4.42-1.6,12.91,4.96,13.15,5.36,.19,10.76,0,16.12,0h21.22c1.36,0,2.76,.11,4.12-.02,2.79-.25,4.38-2.43,4.44-5.1,.07-2.96,0-5.93,0-8.89Zm-3.16,9.14c-.2,1.87-1.67,1.71-3.06,1.71h-38.05c-1.6,0-3.25,.2-3.42-1.93-.19-2.53,0-5.14,0-7.68,0-5.75,.29-11.58,0-17.33-.09-2.08-1.32-3.91-3.36-4.53-2.64-.81-4.42,.96-6.36,2.45-5.06,3.92-10.39,7.47-15.94,10.64-11.16,6.39-23.17,11.21-35.66,14.3-26.82,6.62-55.44,5.07-81.38-4.38-21.16-7.71-40.28-20.67-55.4-37.33-15.29-16.83-26.33-37.37-31.89-59.42-6.11-24.17-5.6-49.94,1.47-73.85,6.28-21.18,17.66-40.73,32.92-56.69,7.57-7.91,16.06-14.93,25.26-20.87,4.64-2.99,9.47-5.72,14.44-8.14,2.51-1.23,5.04-2.38,7.62-3.45,2.13-.88,5.2-1.44,6.64-3.39,1.12-1.52,.94-3.31,.94-5.09v-30.59c0-4.57-.01-9.15,0-13.72,.03-11.08,1.95-22.05,5.8-32.43,8.07-21.73,24.46-39.91,45.11-50.37,24.72-12.53,54.74-13.16,79.96-1.66,21.22,9.69,38.43,27.34,47.35,48.92,5.19,12.54,7.02,25.67,7.02,39.15v154.68c0,6.68,.22,13.4,0,20.09-.04,1.11-.12,2.02-1.57,2.28-1.31,.24-2.89,0-4.2,0h-31.4c-1.76,0-3.61,.16-5.37,0-2.5-.22-1.86-3.53-2-5.39-.2-2.75-.52-5.5-.95-8.21-.86-5.45-2.2-10.83-4.01-16.06-7.1-20.51-21.21-38.25-39.56-49.83-9.69-6.12-20.51-10.48-31.75-12.76-3.41-.68-6.86-1.19-10.33-1.52-2.61-.25-6.01-1.04-8.13,1.01-1.26,1.23-1.43,2.81-1.43,4.45v76.01c0,3.42,.23,6.93,0,10.34-.11,1.47-1.05,1.92-2.39,1.96-2.24,.08-4.52,0-6.77,0h-33.82c-1.9-.17-1.57-2.16-1.57-3.49v-66.65c0-3.69,.48-9.48-5.05-9.16-2.43,.14-4.82,2.47-6.7,3.86-2.22,1.65-4.37,3.39-6.45,5.21-4.32,3.81-8.3,8.02-11.86,12.56-14.8,18.85-22.13,42.85-20.24,66.76,1.96,24.72,13.65,48.11,32.31,64.46,19.18,16.81,44.71,25.41,70.17,23.53,21.69-1.6,42.4-10.64,58.32-25.47,7.79-7.25,14.38-15.86,19.36-25.27,2.54-4.79,4.66-9.8,6.35-14.95,.55-1.65,.76-4.77,2.78-5.06,.46-.07,.99,0,1.45,0h39.06c1.34,0,2.8-.17,4.13,0,1.63,.21,1.6,1.43,1.6,2.62v107.18c0,.8,.08,1.65,0,2.46Z"/><path class="cls-1" d="M253.11,172.27c2.4,.07,4.8,.2,7.2,.39,18.26,1.44,36.21,6.55,52.49,14.95,7.93,4.09,15.49,8.93,22.49,14.46,1.51,1.19,2.98,2.17,4.99,1.68,1.72-.42,3.11-1.8,3.51-3.53,.16-.68,.12-1.42,.12-2.13v-54.31c0-6.44,.41-13.11-.45-19.51-1.99-14.72-10.75-28.1-23.51-35.73-13.11-7.83-29.43-8.73-43.4-2.65-13.62,5.92-24,18.3-27.46,32.75-.88,3.7-1.32,7.5-1.33,11.3v36.07c0,1.26-.07,2.51,.53,3.69,.97,1.9,2.83,2.52,4.83,2.57Zm-2.2-12.74v-29.59c.05-14.4,7.05-28.24,18.86-36.6,11.89-8.42,27.41-10.63,41.13-5.63,13.24,4.83,23.65,16.1,27.79,29.52,2.21,7.15,2.06,14.33,2.06,21.69v55.36c0,1.6,.14,3.25,0,4.85-.07,1.03-.98,1.86-2.05,1.51-.84-.29-1.63-1.18-2.34-1.73-.88-.68-1.78-1.37-2.67-2.03-3.41-2.53-6.94-4.9-10.56-7.11-14.92-9.09-31.52-15.4-48.72-18.47-4.44-.79-8.92-1.38-13.41-1.76-2.24-.19-4.5-.33-6.75-.4-1.37-.05-3.18,.17-3.33-1.64-.23-2.62,0-5.36,0-7.98Z"/><path class="cls-1" d="M149.55,430.53c-.01-.75-.6-1.36-1.35-1.36H44.79c-1.7,0-3.4-.02-5.1-.02-1.42,0-2.56-1.15-2.56-2.55V73.05c0-3.71,.06-7.43,.04-11.15,0-1.42,1.14-2.57,2.57-2.57H210.26c.75,0,1.35-.6,1.35-1.34v-.14c0-.74-.61-1.34-1.35-1.34H69.51c-2.12-.02-24.47-.02-26.62-.03-2.13,0-4.27,0-6.39,.03h-.56c-.15,0-.29,.02-.42,.06h0c-.64,.08-1.23,.53-1.23,1.36V415.46c0,4.83-.09,9.67,0,14.5,0,.22,0,.42,0,.63,0,.42,.15,.74,.4,.97,.02,.04,.06,.07,.09,.08h0c.23,.24,.53,.37,.93,.37h112.49c.78,0,1.37-.64,1.35-1.41,0-.02,0-.04,0-.06Z"/><path class="cls-1" d="M454.2,58.56v-.63c0-.41-.15-.73-.38-.96-.02-.03-.05-.05-.08-.08-.23-.23-.55-.38-.97-.38-20.75,0-57.6,0-78.35,0-.81,0-1.46,.67-1.42,1.47,.03,.76,.66,1.35,1.42,1.35h41.04c3.08,0,30.13,.05,33.21,.03,1.47,0,2.67,1.16,2.67,2.62V415.46c0,3.69-.05,7.38-.03,11.08,0,1.45-1.17,2.64-2.64,2.64h-44.11c-1.83,0-1.84,2.82,0,2.82h47.98c.15,0,.29-.02,.42-.06,.65-.08,1.24-.53,1.24-1.36V73.05c0-4.83,.1-9.67,0-14.5Z"/></svg>