<?xml version="1.0" encoding="UTF-8"?><svg id="Calque_5" xmlns="http://www.w3.org/2000/svg" viewBox="0 0 488.48 488.48"><defs><style>.cls-1{stroke:#bfa65a;stroke-miterlimit:10;stroke-width:3px;}.cls-1,.cls-2{fill:#bfa65a;}</style></defs><path class="cls-1" d="M207.39,312.33h36.23c3.16,0,5.73-2.56,5.73-5.73v-82.46c0-3.34,2.85-5.96,6.18-5.72,5.01,.37,9.92,1.14,14.69,2.28,1.27,.3,2.53,.62,3.78,.98,37.42,10.54,65.39,43.64,68.32,83.68,.04,.53,.07,1.06,.1,1.59,.17,3.02,2.68,5.38,5.71,5.38h38.25c.96,0,1.88-.38,2.56-1.06h0c.68-.68,1.06-1.6,1.06-2.56V130.05c0-35.1-19.2-65.72-47.68-81.91-13.72-7.8-29.58-12.26-46.49-12.26s-32.77,4.45-46.49,12.26c-28.48,16.19-47.69,46.81-47.69,81.91v44.88c0,2.35-1.43,4.47-3.62,5.32-52.61,20.45-89.89,71.57-89.89,131.4,0,.22,0,.45,0,.67,.03,7.89,.72,15.64,2,23.17,8.62,50.62,44.23,92.03,91.5,108.91,14.82,5.3,30.78,8.18,47.42,8.18h.27c31.41-.06,60.4-10.39,83.8-27.82,3.79-2.82,9.17-.16,9.17,4.56v17.53c0,3.16,2.56,5.73,5.73,5.73h36.23c3.16,0,5.73-2.56,5.73-5.72v-105.65c0-3.16-2.56-5.73-5.73-5.73h-40.23c-2.53,0-4.75,1.67-5.48,4.09-11.6,38.43-47.11,66.49-89.22,66.9-.32,0-.62,0-.94,0-17.02,0-32.98-4.51-46.75-12.4-21.86-12.52-38.22-33.56-44.55-58.59-1.88-7.42-2.88-15.17-2.88-23.17,0-31.09,15.06-58.66,38.29-75.81,3.78-2.79,9.14-.09,9.14,4.61v65.47c0,3.16,2.56,5.73,5.73,5.73Zm41.96-182.27c0-24.73,19.3-44.95,43.66-46.41,26.89-1.61,49.32,20.45,49.32,47.39v67.97c0,2.72-3.14,4.25-5.27,2.55-23.27-18.62-52.57-30.01-84.5-30.78-1.78-.04-3.21-1.47-3.21-3.25v-37.47Z"/><path class="cls-2" d="M148.55,430.53c-.01-.75-.6-1.36-1.35-1.36H44.79c-1.7,0-3.4-.02-5.1-.02-1.42,0-2.56-1.15-2.56-2.55V73.05c0-3.71,.06-7.43,.04-11.15,0-1.42,1.14-2.57,2.57-2.57H212.26c.75,0,1.35-.6,1.35-1.34v-.14c0-.74-.61-1.34-1.35-1.34H67.51c-2.12-.02-22.47-.02-24.62-.03-2.13,0-4.27,0-6.39,.03h-.56c-.15,0-.29,.02-.42,.06h0c-.64,.08-1.23,.53-1.23,1.36V415.46c0,4.83-.09,9.67,0,14.5,0,.22,0,.42,0,.63,0,.42,.15,.74,.4,.97,.02,.04,.06,.07,.09,.08h0c.23,.24,.53,.37,.93,.37h111.49c.78,0,1.37-.64,1.35-1.41,0-.02,0-.04,0-.06Z"/><path class="cls-2" d="M454.2,58.56v-.63c0-.41-.15-.73-.38-.96-.02-.03-.05-.05-.08-.08-.23-.23-.55-.38-.97-.38-20.75,0-54.6,0-75.35,0-.81,0-1.46,.67-1.42,1.47,.03,.76,.66,1.35,1.42,1.35h36.04c3.08,0,32.13,.05,35.21,.03,1.47,0,2.67,1.16,2.67,2.62V415.46c0,3.69-.05,7.38-.03,11.08,0,1.45-1.17,2.64-2.64,2.64h-44.11c-1.83,0-1.84,2.82,0,2.82h47.98c.15,0,.29-.02,.42-.06,.65-.08,1.24-.53,1.24-1.36V73.05c0-4.83,.1-9.67,0-14.5Z"/></svg>