<?xml version="1.0" encoding="utf-8"?>
<!-- Generator: Adobe Illustrator 27.0.1, SVG Export Plug-In . SVG Version: 6.00 Build 0)  -->
<svg version="1.1" id="Calque_2_00000119104304697119113390000012292870704046799789_"
	 xmlns="http://www.w3.org/2000/svg" xmlns:xlink="http://www.w3.org/1999/xlink" x="0px" y="0px" viewBox="0 0 347.6 47.5"
	 style="enable-background:new 0 0 347.6 47.5;" xml:space="preserve">
<style type="text/css">
	.st0{fill:#9C8844;}
</style>
<g id="Calque_15">
	<g>
		<g>
			<path class="st0" d="M126.6,12L126.6,12l-0.7,0v23.4h0.7c3.4,0,6.3-1.1,8.5-3.3s3.4-5,3.4-8.4s-1.1-6.1-3.4-8.4
				C132.9,13.1,130.1,12,126.6,12z"/>
			<path class="st0" d="M114.8,0v47.5h34V0H114.8z M139.6,36.6c-3.7,3.3-8.4,5-14.2,5h-5.8V6h5.8c5.8,0,10.5,1.7,14.2,5
				s5.5,7.6,5.5,12.8C145.1,29,143.2,33.2,139.6,36.6z"/>
		</g>
		<path class="st0" d="M172.7,35.8v5.8h-19.8V6h19.8v5.8h-13.5V25c2.7-2.9,6.3-4.3,11-4.3h0.9v5.7h-1c-3.2,0-5.9,0.9-7.8,2.5
			c-2,1.7-3,4-3.2,6.9H172.7L172.7,35.8z"/>
		<path class="st0" d="M191.1,42.1c-3.5,0-6.5-1-8.8-3c-2.3-2-3.5-4.8-3.5-8.2h6.4c0,1.6,0.6,3,1.6,4c1.1,1,2.5,1.6,4.3,1.6
			c1.6,0,3-0.4,4-1.3c1-0.9,1.5-2,1.5-3.4s-0.6-2.5-1.8-3.3s-2.6-1.6-4.3-2.1c-1.7-0.6-3.4-1.2-5.1-1.9c-1.7-0.7-3.1-1.8-4.3-3.3
			s-1.8-3.4-1.8-5.7c0-2.8,1.1-5.1,3.2-7.1c2.1-1.9,4.8-2.9,8-2.9c3.4,0,6.2,1,8.4,3s3.3,4.5,3.3,7.7h-6.4c0-1.5-0.5-2.7-1.5-3.6
			c-1-0.9-2.3-1.4-3.8-1.4c-1.4,0-2.5,0.4-3.4,1.2s-1.4,1.8-1.4,3c0,1.1,0.4,2,1.3,2.8c0.9,0.8,1.9,1.4,3.2,1.8s2.6,0.9,4.1,1.6
			c1.5,0.6,2.9,1.3,4.1,2s2.3,1.8,3.2,3.2c0.9,1.4,1.3,3.1,1.3,5c0,3-1.1,5.5-3.3,7.5C197.4,41.1,194.6,42.1,191.1,42.1L191.1,42.1z
			"/>
		<path class="st0" d="M215.4,41.5H209V6h6.4V41.5z"/>
		<path class="st0" d="M252.8,41.5v-6.2c-3,4.5-7.4,6.8-13,6.8c-5.1,0-9.4-1.8-13-5.3c-3.5-3.5-5.3-7.9-5.3-13s1.8-9.5,5.4-13
			c3.6-3.5,8.1-5.3,13.3-5.3c4.5,0,8.4,1.3,11.8,4c3.4,2.7,5.5,6.2,6.4,10.4h-6.7c-0.8-2.5-2.3-4.6-4.4-6.1
			c-2.1-1.5-4.5-2.3-7.2-2.3c-3.4,0-6.3,1.2-8.6,3.6c-2.4,2.4-3.5,5.3-3.5,8.7s1.2,6.3,3.5,8.7s5.2,3.6,8.6,3.6
			c2.9,0,5.4-0.9,7.6-2.7s3.6-4.1,4.2-7h6.6v15.1L252.8,41.5L252.8,41.5z"/>
		<path class="st0" d="M283.3,41.5v-6.6c-5-4.7-9-9.8-12.1-15.4v22h-6.4V6h6c3.2,8.1,7.4,15,12.5,20.5V6h6.5v35.6H283.3z"/>
		<path class="st0" d="M315.6,35.8v5.8h-19.8V6h19.8v5.8h-13.5V25c2.7-2.9,6.3-4.3,11-4.3h0.9v5.7h-1c-3.2,0-5.9,0.9-7.8,2.5
			c-2,1.7-3,4-3.2,6.9H315.6L315.6,35.8z"/>
		<path class="st0" d="M321.7,41.5V6h11.1c4.1,0,7.4,1,9.9,3.1c2.5,2,3.8,4.7,3.8,8.1c0,2.6-0.6,4.6-1.7,6.2c-1.1,1.6-2.8,3-4.9,4.2
			c2.4,0.8,4.4,2.2,5.7,4.2c1.4,2,2,4.3,2,7.1v2.7h-6.6v-2.8c0-2-0.6-3.6-1.8-4.9s-2.8-1.9-4.6-1.9s-3.5,0.6-4.7,1.9
			c-1.2,1.3-1.8,2.9-1.8,4.9v2.8L321.7,41.5L321.7,41.5z M328.1,11.9v16.4c1-0.7,2.2-1.5,3.8-2.3s2.9-1.5,3.9-2s2-1.3,2.8-2.4
			c0.8-1.1,1.2-2.3,1.2-3.8c0-1.8-0.6-3.2-1.9-4.3s-2.9-1.6-5-1.6L328.1,11.9L328.1,11.9z"/>
		<path class="st0" d="M17,41.5v-5.2c-2.9,3.4-7,5.2-12.5,5.2H0V6h6.4v29.2c3.2-0.2,5.7-1.2,7.4-3c1.7-1.9,2.6-4.5,2.6-7.8V6h6.2
			v29.2c3-0.2,5.1-1,6.5-2.5c1.4-1.5,2.3-4.1,2.7-7.6L34,6h6.5l-2.2,19c-0.7,5.8-2.5,10.1-5.5,12.6c-3,2.6-7.3,3.9-13,3.9
			C19.9,41.5,17,41.5,17,41.5z"/>
		<path class="st0" d="M66.4,35.8v5.8H46.6V6h19.8v5.8H52.9V25c2.7-2.9,6.3-4.3,11-4.3h0.9v5.7h-1c-3.2,0-5.9,0.9-7.8,2.5
			c-2,1.7-3,4-3.2,6.9H66.4L66.4,35.8z"/>
		<path class="st0" d="M98.1,30.8c0,3.1-1.2,5.7-3.5,7.8c-2.3,2-5.3,3-8.9,3H72.5V6h10.9c3.2,0,5.9,0.8,7.8,2.4s3,3.7,3,6.4
			c0,3.1-1.2,5.5-3.5,7.2c2.4,0.7,4.2,1.9,5.5,3.4C97.5,26.9,98.1,28.7,98.1,30.8L98.1,30.8z M78.8,11.5v3.4c0,1.6,0.4,2.8,1.3,3.7
			c0.9,0.9,2,1.3,3.5,1.3c1.3,0,2.3-0.4,3.2-1.2s1.3-1.8,1.3-3c0-1.3-0.4-2.3-1.3-3.1s-2.1-1.2-3.6-1.2
			C83.3,11.5,78.8,11.5,78.8,11.5z M78.8,36h6.3c2,0,3.6-0.5,4.7-1.4c1.2-1,1.8-2.2,1.8-3.8s-0.6-2.6-1.8-3.5s-3.1-1.4-5.8-1.7
			c-2.2-0.3-4-0.9-5.3-1.9C78.8,23.8,78.8,36,78.8,36z"/>
	</g>
</g>
</svg>
